<?xml version="1.0" encoding="utf-8"?>
<!-- Svg Vector Icons : http://www.onlinewebfonts.com/icon -->
<!DOCTYPE svg PUBLIC "-//W3C//DTD SVG 1.1//EN" "http://www.w3.org/Graphics/SVG/1.1/DTD/svg11.dtd">
<svg version="1.1" xmlns="http://www.w3.org/2000/svg" xmlns:xlink="http://www.w3.org/1999/xlink" x="0px" y="0px" viewBox="0 0 1000 1000" enable-background="new 0 0 1000 1000" xml:space="preserve">
<metadata> Svg Vector Icons : http://www.onlinewebfonts.com/icon </metadata>
<g><g><g><path d="M10,500c0,72.5,59,131.4,131.4,131.4h227.2v227.2c0,72.5,59,131.4,131.4,131.4s131.4-59,131.4-131.4V631.4h227.1c72.5,0,131.4-59,131.4-131.4s-59-131.4-131.4-131.4H631.5V141.4C631.5,69,572.5,10,500,10c-72.5,0-131.4,59-131.4,131.4v227.1H141.4C69,368.6,10,427.5,10,500z M378.7,429.2c27.9,0,50.6-22.7,50.6-50.6V141.4c0-39,31.7-70.8,70.8-70.8c39,0,70.8,31.7,70.8,70.8v237.2c0,27.9,22.7,50.6,50.6,50.6h237.2c39,0,70.8,31.7,70.8,70.8c0,39-31.7,70.8-70.8,70.8H621.4c-27.9,0-50.6,22.7-50.6,50.5v237.3c0,39-31.7,70.8-70.8,70.8c-39,0-70.8-31.7-70.8-70.8V621.3c0-27.9-22.7-50.5-50.6-50.5H141.4c-39,0-70.8-31.7-70.8-70.8c0-39,31.7-70.8,70.8-70.8H378.7z"/></g></g><g></g><g></g><g></g><g></g><g></g><g></g><g></g><g></g><g></g><g></g><g></g><g></g><g></g><g></g><g></g></g>
</svg>